<svg width="16" height="16" viewBox="0 0 16 16" fill="none" xmlns="http://www.w3.org/2000/svg">
<path fill-rule="evenodd" clip-rule="evenodd" d="M12.8 11.2C13.2416 11.2 13.6 11.5584 13.6 12C13.6 12.4416 13.2416 12.8 12.8 12.8H3.20002C2.75842 12.8 2.40002 12.4416 2.40002 12C2.40002 11.5584 2.75842 11.2 3.20002 11.2H12.8ZM12.8 7.19995C13.2416 7.19995 13.6 7.55835 13.6 7.99995C13.6 8.44155 13.2416 8.79995 12.8 8.79995H3.20002C2.75842 8.79995 2.40002 8.44155 2.40002 7.99995C2.40002 7.55835 2.75842 7.19995 3.20002 7.19995H12.8ZM12.8 3.19995C13.2416 3.19995 13.6 3.55835 13.6 3.99995C13.6 4.44155 13.2416 4.79995 12.8 4.79995H3.20002C2.75842 4.79995 2.40002 4.44155 2.40002 3.99995C2.40002 3.55835 2.75842 3.19995 3.20002 3.19995H12.8Z" fill="#E7E8EA"/>
</svg>
